<?xml version="1.0" encoding="UTF-8" standalone="no"?>
<svg width="480" height="480" viewBox="0 0 480 480" fill="none" xmlns="http://www.w3.org/2000/svg">
  <!-- Jersey Base -->
  <path d="M120 80H360V380C360 380 320 400 240 400C160 400 120 380 120 380V80Z" fill="#3366CC" stroke="#1A1A1A" stroke-width="2"/>
  
  <!-- Jersey Collar -->
  <path d="M120 80H180L210 120H270L300 80H360" stroke="#1A1A1A" stroke-width="3"/>
  
  <!-- Jersey Sleeves -->
  <path d="M120 80V140L90 180V260L120 280" stroke="#1A1A1A" stroke-width="2"/>
  <path d="M360 80V140L390 180V260L360 280" stroke="#1A1A1A" stroke-width="2"/>
  
  <!-- Jersey Details - Player Number -->
  <text x="240" y="200" font-family="Arial" font-size="80" font-weight="bold" text-anchor="middle" fill="#FFFFFF" stroke="#1A1A1A" stroke-width="1">10</text>
  
  <!-- Jersey Details - Player Name -->
  <text x="240" y="120" font-family="Arial" font-size="24" font-weight="bold" text-anchor="middle" fill="#FFFFFF" stroke="#1A1A1A" stroke-width="0.5">SMITH</text>
  
  <!-- Jersey Wrinkles -->
  <path d="M180 320C200 330 220 335 240 335C260 335 280 330 300 320" stroke="#1A1A1A" stroke-width="1" stroke-dasharray="2 2"/>
  <path d="M160 350C190 360 220 365 240 365C260 365 290 360 320 350" stroke="#1A1A1A" stroke-width="1" stroke-dasharray="2 2"/>
  
  <!-- Jersey Back Indicator -->
  <text x="240" y="420" font-family="Arial" font-size="12" text-anchor="middle" fill="#1A1A1A">BACK</text>
</svg>